<svg id="Zenoti" xmlns="http://www.w3.org/2000/svg" xmlns:xlink="http://www.w3.org/1999/xlink" width="93.85" height="25.512" viewBox="0 0 93.85 25.512">
  <defs>
    <linearGradient id="linear-gradient" x1="0.893" y1="-0.473" x2="0.109" y2="1.467" gradientUnits="objectBoundingBox">
      <stop offset="0" stop-color="#33ad6a"/>
      <stop offset="0.588" stop-color="#1ab1ab"/>
      <stop offset="1" stop-color="#00b6ed"/>
    </linearGradient>
  </defs>
  <path id="Path_1" data-name="Path 1" d="M12.012,10.928H0V7.283H16.518c1.129,0,2.687,1.6.86,3.431q-5.59,5.576-11.17,11.152H18.22v3.646H1.7c-1.129,0-2.687-1.6-.86-3.431q5.59-5.576,11.17-11.152Zm22.654,11.9a9.1,9.1,0,1,1,2.678-6.432,1.587,1.587,0,0,1-1.792,1.818H23.084a5.462,5.462,0,0,0,9.02,2.051l2.562,2.58h0Zm-11.582-8.25h10.31a5.457,5.457,0,0,0-10.3,0h-.009Zm16.088,1.818a9.11,9.11,0,0,1,18.22,0V25.5H53.746v-9.11a5.464,5.464,0,1,0-10.928,0V25.5H39.172v-9.11Zm29.148-9.11a9.11,9.11,0,1,1-9.11,9.11,9.043,9.043,0,0,1,9.11-9.11Zm0,3.646a5.464,5.464,0,1,0,5.464,5.464,5.486,5.486,0,0,0-5.464-5.464Zm14.574,5.464a5.486,5.486,0,0,0,5.464,5.464V25.5a9.129,9.129,0,0,1-9.11-9.11V0h3.646V7.292h5.464v3.646H82.895V16.4h0Zm7.292-9.11h3.646V25.5H90.187Z" fill="url(#linear-gradient)"/>
  <path id="Path_2" data-name="Path 2" d="M10069.041,0c1.021,0,1.531.815,1.531,1.818s-.51,1.818-1.531,1.818c-1.531,0-2.041-.815-2.041-1.818S10067.51,0,10069.041,0Z" transform="translate(-9976.723)" fill="#e53a24" fill-rule="evenodd"/>
</svg>
